HIERARCHY
ROOT Hips
{
	OFFSET 0.00000 0.00000 0.00000
	CHANNELS 6 Xposition Yposition Zposition Yrotation Zrotation Xrotation 
	JOINT Lumbar
	{
		OFFSET 0 0 0
		CHANNELS 3 Zrotation Xrotation Yrotation
		JOINT Neck
		{
			OFFSET 0.00 0.2701 0.00
			CHANNELS 3 Zrotation Xrotation Yrotation
			End Site
			{
				OFFSET 0.00 0.1379 0.00
			}
		}
		JOINT RightShoulder
		{
			OFFSET 0.0119 0.2289 0.1181
			CHANNELS 3 Zrotation Xrotation Yrotation
			JOINT RightElbow
			{
				OFFSET 0.00 -0.1475 0.00
				CHANNELS 2 Zrotation Yrotation
				JOINT RightWrist
				{
					OFFSET 0.00 -0.1605 0.00
					CHANNELS 2 Zrotation Xrotation
					End Site
					{
						OFFSET 0.0040 -0.1068 0.0006
					}
				}
			}
		}
		JOINT LeftShoulder
		{
			OFFSET 0.0119 0.2289 -0.1181
			CHANNELS 3 Zrotation Xrotation Yrotation
			JOINT LeftElbow
			{
				OFFSET 0.00 -0.1475 0.00
				CHANNELS 2 Zrotation Yrotation
				JOINT LeftWrist
				{
					OFFSET 0.00 -0.1605 0.00
					CHANNELS 2 Zrotation Xrotation
					End Site
					{
						OFFSET 0.0040 -0.1068 -0.0006
					}
				}
			}
		}
	}
	JOINT RightHip
	{
		OFFSET 0.0316 -0.0424 0.0458
		CHANNELS 3 Zrotation Xrotation Yrotation
		JOINT RightKnee
		{
			OFFSET 0.00 -0.2438 0.00
			CHANNELS 1 Zrotation
			JOINT RightAnkle
			{
				OFFSET 0.00 -0.2449 0.00
				CHANNELS 3 Zrotation Xrotation Yrotation
				End Site
				{
					OFFSET 0.1237 -0.0542 0.0051
				}
			}
		}
	}
	JOINT LeftHip
	{
		OFFSET 0.0316 -0.0424 -0.0458
		CHANNELS 3 Zrotation Xrotation Yrotation
		JOINT LeftKnee
		{
			OFFSET 0.00 -0.2438 0.00
			CHANNELS 1 Zrotation
			JOINT LeftAnkle
			{
				OFFSET 0.00 -0.2449 0.00
				CHANNELS 3 Zrotation Xrotation Yrotation
				End Site
				{
					OFFSET 0.1237 -0.0542 -0.0051
				}
			}
		}
	}
}
MOTION
Frames: 19
Frame Time: 0.02
9e-05 -0 0.00011 -181.23269 -35.01192 -3.53363 43.86124 2.90823 -2.73605 -12.41288 -1.12539 -0.49868 80.74981 -98.08791 64.16969 5.96592 103.25968 12.8485 1.25971 39.74914 104.60612 -64.16996 9.89334 -88.73956 10.34188 1.68402 39.2187 -2.83529 -1.29186 -22.44427 -6.95371 -3.92291 -2.6968 43.59225 9.0771 -1.12157 -27.66706 -6.44324 2.88852 2.16548
6e-05 -1e-05 9e-05 -181.23637 -35.01221 -3.53558 43.85358 2.91225 -2.73319 -12.42559 -1.12087 -0.49873 80.74883 -98.08541 64.16969 5.96081 103.21481 12.86999 1.27714 39.75891 104.59785 -64.17007 9.89212 -88.74127 10.35597 1.68989 39.21235 -2.86978 -1.48059 -22.43986 -6.94483 -3.90106 -2.6842 43.58858 9.08371 -1.10549 -27.66647 -6.44359 2.89763 2.16672
3e-05 -1e-05 7e-05 -181.24005 -35.01251 -3.53752 43.84593 2.91627 -2.73033 -12.43827 -1.11638 -0.49878 80.74795 -98.08291 64.16968 5.95569 103.17004 12.89136 1.29454 39.7687 104.58956 -64.17019 9.8909 -88.743 10.37001 1.69572 39.20601 -2.90421 -1.66898 -22.43546 -6.93596 -3.87925 -2.67163 43.58492 9.0903 -1.08941 -27.66589 -6.44394 2.90671 2.16795
0 -1e-05 5e-05 -181.24372 -35.01281 -3.53946 43.83829 2.92029 -2.72747 -12.45094 -1.11188 -0.49884 80.747 -98.08041 64.16968 5.95059 103.1253 12.91277 1.31192 39.77844 104.58131 -64.1703 9.88968 -88.74471 10.38405 1.70157 39.19967 -2.9386 -1.85717 -22.43106 -6.9271 -3.85747 -2.65906 43.58126 9.0969 -1.07337 -27.6653 -6.44429 2.91579 2.16919
-3e-05 -1e-05 3e-05 -181.24741 -35.0131 -3.54141 43.83064 2.92431 -2.72461 -12.46363 -1.10736 -0.49889 80.74587 -98.07793 64.16968 5.9455 103.08047 12.93432 1.3293 39.78815 104.57308 -64.17042 9.88847 -88.74639 10.39812 1.70746 39.19332 -2.97303 -2.04561 -22.42665 -6.91822 -3.83564 -2.64648 43.57759 9.10349 -1.05737 -27.66471 -6.44464 2.9249 2.17044
-6e-05 -1e-05 0 -181.25105 -35.01341 -3.54332 43.82301 2.92832 -2.72175 -12.47632 -1.10293 -0.49895 80.74552 -98.07539 64.16968 5.94033 103.03585 12.95532 1.34672 39.7981 104.56469 -64.17053 9.88723 -88.74821 10.41211 1.71317 39.18702 -3.00746 -2.23386 -22.42228 -6.90938 -3.81387 -2.63393 43.57397 9.1101 -1.04114 -27.66413 -6.44499 2.93392 2.17165
-8e-05 -1e-05 -2e-05 -181.25477 -35.01367 -3.5453 43.81533 2.93236 -2.7189 -12.48898 -1.09832 -0.499 80.74368 -98.07295 64.16968 5.9353 102.99084 12.9774 1.36408 39.80752 104.55661 -64.17065 9.88605 -88.74976 10.42627 1.71925 39.18061 -3.04185 -2.42231 -22.41784 -6.90048 -3.79201 -2.62133 43.57025 9.11667 -1.02536 -27.66353 -6.44534 2.94312 2.17292
-0.00011 -1e-05 -4e-05 -181.25843 -35.01399 -3.54722 43.80771 2.93637 -2.71604 -12.50167 -1.09387 -0.49905 80.74309 -98.07044 64.16967 5.93019 102.94621 12.99847 1.38145 39.81751 104.54827 -64.17076 9.88481 -88.75155 10.44024 1.72497 39.17431 -3.07627 -2.61053 -22.41346 -6.89163 -3.77024 -2.60877 43.56663 9.12326 -1.00923 -27.66295 -6.44569 2.95215 2.17415
-0.00014 -2e-05 -6e-05 -181.262 -35.01436 -3.54907 43.80014 2.94033 -2.71314 -12.51441 -1.08964 -0.49911 80.74454 -98.06775 64.16968 5.9248 102.90195 13.01838 1.39903 39.82787 104.53952 -64.17088 9.88354 -88.75366 10.45408 1.73034 39.1681 -3.11077 -2.79876 -22.40915 -6.88284 -3.74855 -2.59628 43.56311 9.12994 -0.99236 -27.66239 -6.44603 2.96098 2.17529
-0.00017 -2e-05 -8e-05 -181.26604 -35.01437 -3.55134 43.79221 2.94453 -2.71041 -12.5269 -1.0842 -0.49916 80.73577 -98.06584 64.16965 5.92047 102.85526 13.04517 1.41598 39.83516 104.53287 -64.171 9.88255 -88.754 10.46899 1.73799 39.16126 -3.14495 -2.98785 -22.40441 -6.87372 -3.72632 -2.58343 43.55894 9.13633 -0.97881 -27.66172 -6.44643 2.97096 2.17683
-0.0002 -2e-05 -0.0001 -181.2691 -35.0152 -3.55272 43.78506 2.94824 -2.70736 -12.53989 -1.08128 -0.49922 80.74759 -98.06243 64.16969 5.91424 102.81391 13.05732 1.4339 39.84952 104.52194 -64.1711 9.88089 -88.75803 10.48144 1.74064 39.15582 -3.17971 -3.17449 -22.40059 -6.86529 -3.70525 -2.57134 43.5562 9.14318 -0.95885 -27.66127 -6.44669 2.97852 2.17757
-0.00022 -2e-05 -0.0001 -181.26941 -35.01763 -3.55154 43.77984 2.95064 -2.70299 -12.55453 -1.08551 -0.49932 80.82476 -98.05364 64.16996 5.89998 102.78542 13.03005 1.45746 39.87863 104.4978 -64.17112 9.87803 -88.77257 10.48868 1.73089 39.15351 -3.217 -3.35971 -22.39931 -6.85871 -3.68738 -2.56132 43.55681 9.1525 -0.91675 -27.66149 -6.44655 2.97926 2.17591
-0.00024 -3e-05 -0.0001 -181.26874 -35.02099 -3.54948 43.77545 2.95253 -2.69836 -12.56963 -1.09221 -0.49943 80.92117 -98.04358 64.17029 5.8843 102.76262 12.98796 1.48149 39.91573 104.46962 -64.17111 9.8744 -88.79073 10.49315 1.71587 39.15273 -3.25472 -3.54153 -22.39894 -6.85283 -3.6707 -2.55209 43.55897 9.16197 -0.86942 -27.66192 -6.44627 2.97762 2.1735
-0.00026 -3e-05 -0.0001 -181.26855 -35.02433 -3.54788 43.7708 2.95461 -2.69413 -12.58434 -1.09761 -0.49953 81.00276 -98.03493 64.17057 5.87111 102.73836 12.95219 1.50332 39.95219 104.44422 -64.17111 9.87069 -88.80696 10.49787 1.70243 39.15169 -3.29163 -3.72142 -22.39813 -6.84667 -3.65349 -2.54253 43.56082 9.17068 -0.82701 -27.66222 -6.44606 2.97713 2.17154
-0.00028 -3e-05 -0.0001 -181.26822 -35.02597 -3.54605 43.76562 2.95686 -2.68876 -12.59981 -1.10376 -0.49963 81.10925 -98.02278 64.17092 5.85021 102.70934 12.91816 1.53337 39.97594 104.41484 -64.17111 9.86874 -88.82438 10.50684 1.69246 39.1488 -3.33111 -3.91586 -22.39743 -6.84036 -3.63621 -2.53281 43.56103 9.18267 -0.77239 -27.66264 -6.44579 2.97622 2.16902
-0.0003 -4e-05 -9e-05 -181.26796 -35.03139 -3.54448 43.76176 2.95863 -2.68566 -12.61383 -1.10892 -0.49974 81.16941 -98.01758 64.17114 5.84494 102.69158 12.87699 1.54662 40.02818 104.39278 -64.17111 9.86302 -88.84019 10.5063 1.67395 39.15014 -3.36538 -4.07932 -22.3967 -6.83453 -3.61938 -2.52363 43.565 9.18741 -0.7438 -27.66288 -6.44564 2.9758 2.16762
-0.00032 -4e-05 -6e-05 -181.26795 -35.04671 -3.54388 43.76114 2.95945 -2.68934 -12.6235 -1.11087 -0.49989 81.0893 -98.03204 64.17094 5.88394 102.70354 12.81984 1.51176 40.1562 104.39203 -64.17112 9.84643 -88.8507 10.48053 1.63392 39.16261 -3.38478 -4.1565 -22.39574 -6.82986 -3.60338 -2.51566 43.57892 9.17622 -0.77188 -27.66258 -6.44561 2.97584 2.16833
-0.00035 -3e-05 -3e-05 -181.26806 -35.06583 -3.54356 43.76183 2.95978 -2.69525 -12.63175 -1.11172 -0.50004 80.96391 -98.05342 64.17059 5.93856 102.72667 12.75604 1.46031 40.31293 104.39871 -64.17111 9.82622 -88.85949 10.44535 1.58538 39.17932 -3.39894 -4.20268 -22.39469 -6.82567 -3.58783 -2.50824 43.59656 9.15709 -0.82887 -27.66211 -6.44573 2.97671 2.17039
-0.00037 -3e-05 0 -181.26824 -35.0834 -3.54311 43.76203 2.96019 -2.69984 -12.6408 -1.11294 -0.50019 80.86352 -98.07161 64.17032 5.98557 102.74465 12.69521 1.41746 40.45691 104.40201 -64.1711 9.80805 -88.86906 10.41413 1.54018 39.19422 -3.4158 -4.2644 -22.39363 -6.82127 -3.5721 -2.50063 43.61252 9.13869 -0.88417 -27.66172 -6.44594 2.97822 2.17266
